<?xml version="1.0" standalone="no"?>
<!DOCTYPE svg PUBLIC "-//W3C//DTD SVG 20010904//EN"
 "http://www.w3.org/TR/2001/REC-SVG-20010904/DTD/svg10.dtd">
<svg version="1.0" xmlns="http://www.w3.org/2000/svg"
 width="260.000000pt" height="260.000000pt" viewBox="0 0 260.000000 260.000000"
 preserveAspectRatio="xMidYMid meet">
<metadata>
Created by potrace 1.14, written by Peter Selinger 2001-2017
</metadata>
<g transform="translate(0.000000,260.000000) scale(0.100000,-0.100000)"
fill="#000000" stroke="none">
<path d="M885 2255 c-79 -18 -127 -39 -200 -87 -131 -88 -216 -199 -266 -348
-45 -134 -46 -245 -1 -380 18 -52 40 -107 49 -121 10 -15 30 -44 45 -66 37
-56 141 -147 213 -187 74 -42 238 -86 320 -86 50 0 234 40 295 64 24 10 50
-16 60 -59 5 -22 7 -146 5 -275 -1 -129 1 -251 6 -272 16 -62 69 -128 119
-149 40 -16 80 -18 395 -18 320 -1 353 1 390 18 48 22 79 54 99 103 13 30 16
95 16 379 1 337 1 342 -22 388 -25 49 -69 85 -127 101 -20 5 -160 10 -317 10
-262 0 -283 1 -305 19 -26 21 -28 0 21 211 25 110 25 153 -4 280 -30 130 -73
205 -173 306 -87 86 -218 157 -323 174 -88 13 -222 11 -295 -5z"/>
</g>
</svg>
